# Blender v2.78 (sub 5) OBJ File: ''
# www.blender.org
o Cube
v -0.500000 -0.080000 0.500000
v -0.500000 0.080000 0.500000
v -0.460763 -0.040763 -0.500000
v -0.460763 0.040763 -0.500000
v 0.500000 -0.080000 0.500000
v 0.500000 0.080000 0.500000
v 0.460763 -0.040763 -0.500000
v 0.460763 0.040763 -0.500000
v -0.500000 0.080000 -0.500000
v -0.500000 -0.080000 -0.500000
v 0.500000 -0.080000 -0.500000
v 0.500000 0.080000 -0.500000
v -0.186285 0.040763 -0.603189
v -0.186285 -0.040763 -0.603189
v 0.186285 -0.040763 -0.603189
v 0.186285 0.040763 -0.603189
v -0.186285 0.040763 -0.663050
v -0.186285 -0.040763 -0.663050
v 0.186285 -0.040763 -0.663050
v 0.186285 0.040763 -0.663050
v -0.315381 0.040763 -0.663050
v -0.315381 -0.040763 -0.663050
v 0.315381 -0.040763 -0.663050
v 0.315381 0.040763 -0.663050
v 0.000000 0.040763 -0.835660
v 0.000000 -0.040763 -0.835660
vn -1.0000 0.0000 0.0000
vn 0.0000 -1.0000 -0.0000
vn 1.0000 0.0000 0.0000
vn 0.0000 0.0000 1.0000
vn 0.0000 1.0000 0.0000
vn 0.0000 0.0000 -1.0000
vn -0.3519 0.0000 -0.9360
vn 0.3519 0.0000 -0.9360
vn -0.4801 0.0000 -0.8772
vn 0.4801 0.0000 -0.8772
s off
f 1//1 2//1 9//1 10//1
f 7//2 3//2 14//2 15//2
f 11//3 12//3 6//3 5//3
f 5//4 6//4 2//4 1//4
f 10//2 11//2 5//2 1//2
f 12//5 9//5 2//5 6//5
f 4//6 3//6 10//6 9//6
f 3//6 7//6 11//6 10//6
f 8//6 4//6 9//6 12//6
f 7//6 8//6 12//6 11//6
f 13//5 16//5 20//5 17//5
f 4//5 8//5 16//5 13//5
f 3//7 4//7 13//7 14//7
f 8//8 7//8 15//8 16//8
f 20//4 19//4 23//4 24//4
f 14//1 13//1 17//1 18//1
f 16//3 15//3 19//3 20//3
f 15//2 14//2 18//2 19//2
f 21//5 24//5 25//5
f 19//4 18//4 22//4 23//4
f 17//4 20//4 24//4 21//4
f 18//4 17//4 21//4 22//4
f 22//9 21//9 25//9 26//9
f 24//10 23//10 26//10 25//10
f 23//2 22//2 26//2
